<?xml version="1.0" encoding="UTF-8"?>
<svg id="Layer_1" xmlns="http://www.w3.org/2000/svg" version="1.1" viewBox="0 0 212 206">
  <!-- Generator: Adobe Illustrator 29.3.1, SVG Export Plug-In . SVG Version: 2.1.0 Build 151)  -->
  <defs>
    <style>
      .st0 {
        fill: none;
        stroke: #000;
        stroke-miterlimit: 10;
      }
    </style>
  </defs>
  <path class="st0" d="M175.7,102.4c.3,2,.1,4.1-.5,6-.7,2.5-2.3,4.6-3.1,6.9-1.8,5.7,3.5,9.6,6.5,13.3,3.4,3.8,10.4,12.8,8.8,15.4-.5,1-2,1.3-4.3,1-3.2,0-15.9-4.6-17.5-1.7-1,1.4,1.4,6.1,2.9,9,2,4.1,4,9.8,4.2,13.6.4,4.6-3,7.4-7.1,7.2-6.1-.6-12.4-3.9-18.6-4.9-7.8-1.4-17.7-.7-23.5,5.9-2.3,2.7-3.8,6.3-5.1,9.7-.8,2.1-1.5,3.8-2.4,4.7-2.5,2.3-4.7-1.7-6.8-3.1-1.7-1.5-3.8-.9-5.1.9-3,4.1-5.2,12.7-10.4,15.5-3.7,2.2-7.3-1.3-9.9-5-2.9-3.9-4.5-10.2-6.8-13.7-5.6-8.3-13.6,3.7-19.7,5.6-4.5,2-9,1.3-13.6.1-5.6-1.4-11.9-3.3-15.7-8.3-2.2-3.1-2.4-7.4-2.1-11.8.4-5.4,2.4-10.9,3.1-16.1.8-6.7-.7-12.8-6-16.2-2.5-1.5-5.3-2.6-8.3-3.6-3.6-1.4-8-1.6-10.5-4.9-2.3-4.2,3.6-9.8,7.2-12.8,6.7-5.2,17.6-7.4,25.5-11,6.9-3,1.2-5.6-2.1-8.6-6.7-5.6-8.8-10.7-.5-17.4,2.9-2.7,8-4.1,8.7-8.7.3-5.4-5.2-10.8-8.1-14.9-2.4-3.2-3.4-5.5,1.4-4,3.8,1.1,10.5,4,14.3,4.9,7.1,2.1,2.2-5.8.5-9.6-1.6-3.5-5.7-10.5-.6-12.1,4.8-1.4,13.8,3.6,17-2.5,1.1-2.1,1.3-4.5,1.5-7.1.3-4.3.7-9.7,2.9-13.2,2.3-3.8,6-6.4,9.9-6.6,3.4,0,6,2.5,8.7,5.4,2.8,3.1,4.3,6.6,7.9,6.8,2.9-.4,4.8-3.4,7.4-4.8,5.3-3.6,9.2,2.4,13.5,5.2,5.3,3.5,10.8,2.2,16.5.5,3.8-1.1,7.6-2.2,11.7-4.4,4.4-2.2,8.4-6.4,13.3-7.1,6.2-1.1,8.3,4.5,7.5,10.4-.9,6.8-6,16.1-7,21.3-.1.7-.3,1.5-.1,2.2.7,3.2,7.8-.5,10.3-1.2,6.4-2.3,14.6-4.9,20.5-.1,2.4,2.1,4.4,5,4.6,8.1.2,6.8-4.4,13-7.7,18.1-3.9,5.9-.4,7,4.1,7.6,3.9.6,9.3.9,12.7,1.3,5.8.7,5.2,1.7,0,4.1-6.4,3-17.5,7.8-25,11.4-6.7,3.4-6.3,5.6-4.8,12.8h0c0,.1,0,.1,0,.1Z"/>
</svg>