<?xml version="1.0" encoding="UTF-8"?>
<svg id="Layer_1" xmlns="http://www.w3.org/2000/svg" viewBox="0 0 828.99 798">
  <defs>
    <style>
      .cls-1 {
        fill: none;
        stroke: #000;
        stroke-miterlimit: 10;
      }
    </style>
  </defs>
  <path class="cls-1" d="M692.31,394.38c1.11,7.91.6,16.47-1.89,24.22-2.94,9.93-9.45,18.35-12.37,27.85-7.2,22.76,13.89,38.57,26.16,53.34,13.61,15.13,41.87,51.56,35.5,61.94-1.87,4.1-7.93,5.21-17.41,4.04-12.84,0-64.17-18.56-70.49-7.01-4.14,5.45,5.75,24.35,11.56,36.06,8.1,16.57,16.28,39.33,17.08,54.83,1.77,18.54-11.89,29.89-28.59,28.88-24.63-2.48-49.97-15.55-74.72-19.82-31.42-5.75-71.12-2.89-94.46,23.87-9.31,10.85-15.35,25.4-20.38,39.05-3.15,8.4-5.86,15.47-9.51,19.07-9.93,9.21-19.09-6.93-27.25-12.28-6.76-5.94-15.36-3.56-20.34,3.82-12.02,16.67-21.12,51.28-41.9,62.55-15,8.76-29.31-5.31-39.9-19.95-11.54-15.53-18.28-41.08-27.53-55.22-22.41-33.32-54.58,14.99-79.3,22.42-18.28,8.16-36.21,5.04-54.76.44-22.42-5.8-47.88-13.16-63.25-33.45-8.78-12.6-9.56-29.8-8.51-47.47,1.49-21.73,9.64-43.93,12.63-64.96,3.41-27.08-2.9-51.57-24.32-65.15-10.17-6.18-21.34-10.32-33.48-14.43-14.58-5.75-32.07-6.3-42.33-19.67-9.21-16.83,14.63-39.48,29.08-51.41,26.93-21.1,70.75-29.73,102.66-44.17,27.77-11.91,4.97-22.66-8.33-34.48-26.81-22.57-35.4-43.18-2.07-69.95,11.58-10.82,32.2-16.57,34.93-35.2,1.08-21.87-21.12-43.58-32.69-60.06-9.46-12.89-13.77-22.22,5.8-16.13,15.38,4.35,42.45,16.02,57.74,19.85,28.62,8.51,8.7-23.43,1.84-38.6-6.41-13.93-23.02-42.42-2.5-48.55,19.37-5.56,55.39,14.5,68.3-9.94,4.45-8.4,5.2-18.22,5.96-28.59,1.06-17.25,2.98-38.9,11.57-53.17,9.43-15.27,24.11-25.95,39.96-26.45,13.71.26,24.33,10.05,34.96,21.9,11.3,12.4,17.33,26.73,31.68,27.2,11.57-1.6,19.34-13.69,29.68-19.21,21.28-14.53,37.11,9.73,54.28,21.06,21.14,13.97,43.58,8.76,66.22,1.96,15.41-4.6,30.49-8.7,47-17.54,17.69-8.94,33.9-25.62,53.37-28.42,24.84-4.25,33.38,18.03,30.05,41.73-3.47,27.29-23.96,64.9-28.18,85.78-.54,2.93-1.13,6.18-.55,8.84,3.01,13.06,31.32-2.02,41.38-4.98,25.63-9.09,58.73-19.67,82.33-.51,9.71,8.4,17.66,19.94,18.52,32.73.94,27.48-17.73,52.47-31.07,72.97-15.67,23.67-1.43,28.14,16.35,30.73,15.76,2.22,37.23,3.55,51.02,5.41,23.4,2.8,20.85,6.92.07,16.56-25.61,12.02-70.45,31.53-100.51,45.83-26.8,13.56-25.23,22.44-19.19,51.43l.05.41Z"/>
</svg>